<?xml version="1.0" encoding="utf-8" standalone="no"?>
<!DOCTYPE svg PUBLIC "-//W3C//DTD SVG 1.1//EN"
  "http://www.w3.org/Graphics/SVG/1.1/DTD/svg11.dtd">
<svg xmlns:xlink="http://www.w3.org/1999/xlink" width="529.140212pt" height="247.248pt" viewBox="0 0 529.140212 247.248" xmlns="http://www.w3.org/2000/svg" version="1.1">
 <metadata>
  <rdf:RDF xmlns:dc="http://purl.org/dc/elements/1.1/" xmlns:cc="http://creativecommons.org/ns#" xmlns:rdf="http://www.w3.org/1999/02/22-rdf-syntax-ns#">
   <cc:Work>
    <dc:type rdf:resource="http://purl.org/dc/dcmitype/StillImage"/>
    <dc:date>2026-06-07T15:46:24.109975</dc:date>
    <dc:format>image/svg+xml</dc:format>
    <dc:creator>
     <cc:Agent>
      <dc:title>Matplotlib v3.10.7, https://matplotlib.org/</dc:title>
     </cc:Agent>
    </dc:creator>
   </cc:Work>
  </rdf:RDF>
 </metadata>
 <defs>
  <style type="text/css">*{stroke-linejoin: round; stroke-linecap: butt}</style>
 </defs>
 <g id="figure_1">
  <g id="patch_1">
   <path d="M 0 247.248 
L 529.140212 247.248 
L 529.140212 0 
L 0 0 
z
" style="fill: #ffffff"/>
  </g>
  <g id="axes_1">
   <g id="patch_2">
    <path d="M 30.654693 89.628192 
L 112.278933 89.628192 
Q 114.845733 89.628192 114.845733 87.299712 
L 114.845733 45.852768 
Q 114.845733 43.524288 112.278933 43.524288 
L 30.654693 43.524288 
Q 28.087893 43.524288 28.087893 45.852768 
L 28.087893 87.299712 
Q 28.087893 89.628192 30.654693 89.628192 
z
" clip-path="url(#p7684d31f39)" style="fill: #e8f1fa; stroke: #2a6fbb; stroke-width: 1.2; stroke-linejoin: miter"/>
   </g>
   <g id="patch_3">
    <path d="M 164.128293 89.628192 
L 245.752533 89.628192 
Q 248.319333 89.628192 248.319333 87.299712 
L 248.319333 45.852768 
Q 248.319333 43.524288 245.752533 43.524288 
L 164.128293 43.524288 
Q 161.561493 43.524288 161.561493 45.852768 
L 161.561493 87.299712 
Q 161.561493 89.628192 164.128293 89.628192 
z
" clip-path="url(#p7684d31f39)" style="fill: #f3f6f8; stroke: #6b7785; stroke-width: 1.2; stroke-linejoin: miter"/>
   </g>
   <g id="patch_4">
    <path d="M 302.735493 89.628192 
L 384.359733 89.628192 
Q 386.926533 89.628192 386.926533 87.299712 
L 386.926533 45.852768 
Q 386.926533 43.524288 384.359733 43.524288 
L 302.735493 43.524288 
Q 300.168693 43.524288 300.168693 45.852768 
L 300.168693 87.299712 
Q 300.168693 89.628192 302.735493 89.628192 
z
" clip-path="url(#p7684d31f39)" style="fill: #fceedb; stroke: #d9822b; stroke-width: 1.2; stroke-linejoin: miter"/>
   </g>
   <g id="patch_5">
    <path d="M 425.941893 89.628192 
L 507.566133 89.628192 
Q 510.132933 89.628192 510.132933 87.299712 
L 510.132933 45.852768 
Q 510.132933 43.524288 507.566133 43.524288 
L 425.941893 43.524288 
Q 423.375093 43.524288 423.375093 45.852768 
L 423.375093 87.299712 
Q 423.375093 89.628192 425.941893 89.628192 
z
" clip-path="url(#p7684d31f39)" style="fill: #e7f5ef; stroke: #2f9e7e; stroke-width: 1.2; stroke-linejoin: miter"/>
   </g>
   <g id="patch_6">
    <path d="M 61.456293 189.752832 
L 148.214133 189.752832 
Q 150.780933 189.752832 150.780933 187.424352 
L 150.780933 153.89424 
Q 150.780933 151.56576 148.214133 151.56576 
L 61.456293 151.56576 
Q 58.889493 151.56576 58.889493 153.89424 
L 58.889493 187.424352 
Q 58.889493 189.752832 61.456293 189.752832 
z
" clip-path="url(#p7684d31f39)" style="fill: #ffffff; stroke: #a7b0b8; stroke-width: 1.2; stroke-linejoin: miter"/>
   </g>
   <g id="patch_7">
    <path d="M 169.261893 189.752832 
L 256.019733 189.752832 
Q 258.586533 189.752832 258.586533 187.424352 
L 258.586533 153.89424 
Q 258.586533 151.56576 256.019733 151.56576 
L 169.261893 151.56576 
Q 166.695093 151.56576 166.695093 153.89424 
L 166.695093 187.424352 
Q 166.695093 189.752832 169.261893 189.752832 
z
" clip-path="url(#p7684d31f39)" style="fill: #ffffff; stroke: #a7b0b8; stroke-width: 1.2; stroke-linejoin: miter"/>
   </g>
   <g id="patch_8">
    <path d="M 289.901493 189.752832 
L 376.659333 189.752832 
Q 379.226133 189.752832 379.226133 187.424352 
L 379.226133 153.89424 
Q 379.226133 151.56576 376.659333 151.56576 
L 289.901493 151.56576 
Q 287.334693 151.56576 287.334693 153.89424 
L 287.334693 187.424352 
Q 287.334693 189.752832 289.901493 189.752832 
z
" clip-path="url(#p7684d31f39)" style="fill: #ffffff; stroke: #a7b0b8; stroke-width: 1.2; stroke-linejoin: miter"/>
   </g>
   <g id="patch_9">
    <path d="M 402.840693 189.752832 
L 489.598533 189.752832 
Q 492.165333 189.752832 492.165333 187.424352 
L 492.165333 153.89424 
Q 492.165333 151.56576 489.598533 151.56576 
L 402.840693 151.56576 
Q 400.273893 151.56576 400.273893 153.89424 
L 400.273893 187.424352 
Q 400.273893 189.752832 402.840693 189.752832 
z
" clip-path="url(#p7684d31f39)" style="fill: #ffffff; stroke: #a7b0b8; stroke-width: 1.2; stroke-linejoin: miter"/>
   </g>
   <g id="text_1">
    <text style="font-weight: 700; font-size: 8.8px; font-family: 'Microsoft YaHei', 'SimHei', 'Arial', 'DejaVu Sans', sans-serif; fill: #1f2933" transform="translate(41.122625 63.608302)">Python 模型层</text>
    <text style="font-weight: 700; font-size: 8.8px; font-family: 'Microsoft YaHei', 'SimHei', 'Arial', 'DejaVu Sans', sans-serif; fill: #1f2933" transform="translate(7.2 74.631677)">ResNet-18 / Conv2d wrapper</text>
   </g>
   <g id="text_2">
    <text style="font-weight: 700; font-size: 8.8px; font-family: 'Microsoft YaHei', 'SimHei', 'Arial', 'DejaVu Sans', sans-serif; fill: #1f2933" transform="translate(164.528475 63.466677)">PyTorch Extension</text>
    <text style="font-weight: 700; font-size: 8.8px; font-family: 'Microsoft YaHei', 'SimHei', 'Arial', 'DejaVu Sans', sans-serif; fill: #1f2933" transform="translate(143.460725 74.490052)">CUDAExtension + pybind11</text>
   </g>
   <g id="text_3">
    <text style="font-weight: 700; font-size: 8.8px; font-family: 'Microsoft YaHei', 'SimHei', 'Arial', 'DejaVu Sans', sans-serif; fill: #1f2933" transform="translate(319.3758 63.509302)">C++ 调度层</text>
    <text style="font-weight: 700; font-size: 8.8px; font-family: 'Microsoft YaHei', 'SimHei', 'Arial', 'DejaVu Sans', sans-serif; fill: #1f2933" transform="translate(296.478613 74.490052)">参数封装 / Tensor 检查</text>
   </g>
   <g id="text_4">
    <text style="font-weight: 700; font-size: 8.8px; font-family: 'Microsoft YaHei', 'SimHei', 'Arial', 'DejaVu Sans', sans-serif; fill: #1f2933" transform="translate(438.194575 63.509302)">CUDA Kernel</text>
    <text style="font-weight: 700; font-size: 8.8px; font-family: 'Microsoft YaHei', 'SimHei', 'Arial', 'DejaVu Sans', sans-serif; fill: #1f2933" transform="translate(422.118763 74.490052)">Forward / Backward</text>
   </g>
   <g id="patch_10">
    <path d="M 121.817703 66.809088 
Q 134.354229 66.809088 144.990098 66.809088 
" style="fill: none; stroke: #7b8794; stroke-width: 1.7; stroke-linecap: round"/>
    <path d="M 139.390098 64.009088 
L 144.990098 66.809088 
L 139.390098 69.609088 
z
" style="fill: #7b8794; stroke: #7b8794; stroke-width: 1.7; stroke-linecap: round"/>
   </g>
   <g id="patch_11">
    <path d="M 255.291303 66.809088 
Q 267.827829 66.809088 278.463698 66.809088 
" style="fill: none; stroke: #7b8794; stroke-width: 1.7; stroke-linecap: round"/>
    <path d="M 272.863698 64.009088 
L 278.463698 66.809088 
L 272.863698 69.609088 
z
" style="fill: #7b8794; stroke: #7b8794; stroke-width: 1.7; stroke-linecap: round"/>
   </g>
   <g id="patch_12">
    <path d="M 393.898503 66.809088 
Q 406.435029 66.809088 417.070898 66.809088 
" style="fill: none; stroke: #7b8794; stroke-width: 1.7; stroke-linecap: round"/>
    <path d="M 411.470898 64.009088 
L 417.070898 66.809088 
L 411.470898 69.609088 
z
" style="fill: #7b8794; stroke: #7b8794; stroke-width: 1.7; stroke-linecap: round"/>
   </g>
   <g id="text_5">
    <text style="font-size: 8.5px; font-family: 'Microsoft YaHei', 'SimHei', 'Arial', 'DejaVu Sans', sans-serif; fill: #1f2933" transform="translate(81.790916 167.696913)">输入 Tensor</text>
    <text style="font-size: 8.5px; font-family: 'Microsoft YaHei', 'SimHei', 'Arial', 'DejaVu Sans', sans-serif; fill: #1f2933" transform="translate(74.425134 178.303319)">NCHW / CUDA</text>
   </g>
   <g id="text_6">
    <text style="font-size: 8.5px; font-family: 'Microsoft YaHei', 'SimHei', 'Arial', 'DejaVu Sans', sans-serif; fill: #1f2933" transform="translate(195.640813 167.672343)">卷积参数</text>
    <text style="font-size: 8.5px; font-family: 'Microsoft YaHei', 'SimHei', 'Arial', 'DejaVu Sans', sans-serif; fill: #1f2933" transform="translate(163.57257 178.278749)">stride / padding / shape</text>
   </g>
   <g id="text_7">
    <text style="font-size: 8.5px; font-family: 'Microsoft YaHei', 'SimHei', 'Arial', 'DejaVu Sans', sans-serif; fill: #1f2933" transform="translate(310.236116 167.696913)">输出 Tensor</text>
    <text style="font-size: 8.5px; font-family: 'Microsoft YaHei', 'SimHei', 'Arial', 'DejaVu Sans', sans-serif; fill: #1f2933" transform="translate(304.770217 178.303319)">N×K×Oh×Ow</text>
   </g>
   <g id="text_8">
    <text style="font-size: 8.5px; font-family: 'Microsoft YaHei', 'SimHei', 'Arial', 'DejaVu Sans', sans-serif; fill: #1f2933" transform="translate(429.219613 167.672343)">实验指标</text>
    <text style="font-size: 8.5px; font-family: 'Microsoft YaHei', 'SimHei', 'Arial', 'DejaVu Sans', sans-serif; fill: #1f2933" transform="translate(399.472269 178.278749)">Accuracy / Throughput</text>
   </g>
   <g id="patch_13">
    <path d="M 98.214078 145.452789 
Q 84.81368 120.596063 72.049944 96.920295 
" style="fill: none; stroke: #b0b8c0; stroke-width: 1.2; stroke-linecap: round"/>
    <path d="M 72.242707 103.178318 
L 72.049944 96.920295 
L 77.17202 100.520898 
z
" style="fill: #b0b8c0; stroke: #b0b8c0; stroke-width: 1.2; stroke-linecap: round"/>
   </g>
   <g id="patch_14">
    <path d="M 211.876287 144.564943 
Q 208.790785 120.598314 205.876594 97.962344 
" style="fill: none; stroke: #b0b8c0; stroke-width: 1.2; stroke-linecap: round"/>
    <path d="M 203.814565 103.874031 
L 205.876594 97.962344 
L 209.368726 103.158979 
z
" style="fill: #b0b8c0; stroke: #b0b8c0; stroke-width: 1.2; stroke-linecap: round"/>
   </g>
   <g id="patch_15">
    <path d="M 340.079754 148.733539 
Q 392.828759 120.59773 444.393991 93.093334 
" style="fill: none; stroke: #b0b8c0; stroke-width: 1.2; stroke-linecap: round"/>
    <path d="M 438.135175 93.258318 
L 444.393991 93.093334 
L 440.770688 98.199377 
z
" style="fill: #b0b8c0; stroke: #b0b8c0; stroke-width: 1.2; stroke-linecap: round"/>
   </g>
   <g id="patch_16">
    <path d="M 445.962933 96.699102 
Q 445.962933 120.5982 445.962933 143.155657 
" style="fill: none; stroke: #b0b8c0; stroke-width: 1.2; stroke-linecap: round"/>
    <path d="M 448.762933 137.555657 
L 445.962933 143.155657 
L 443.162933 137.555657 
z
" style="fill: #b0b8c0; stroke: #b0b8c0; stroke-width: 1.2; stroke-linecap: round"/>
   </g>
   <g id="text_9">
    <text style="font-weight: 700; font-size: 12px; font-family: 'Microsoft YaHei', 'SimHei', 'Arial', 'DejaVu Sans', sans-serif; text-anchor: start; fill: #1f2933" x="13.713813" y="22.102272" transform="rotate(-0 13.713813 22.102272)">PyTorch 自定义 CUDA 卷积算子调用链</text>
   </g>
   <g id="text_10">
    <text style="font-size: 8.7px; font-family: 'Microsoft YaHei', 'SimHei', 'Arial', 'DejaVu Sans', sans-serif; text-anchor: start; fill: #52616b" x="13.713813" y="227.008512" transform="rotate(-0 13.713813 227.008512)">该流程将 Python 模型中的 Conv2d 调用映射到 C++/CUDA 扩展模块，使 ResNet-18 推理可以直接调用自定义卷积 kernel。</text>
   </g>
  </g>
 </g>
 <defs>
  <clipPath id="p7684d31f39">
   <rect x="8.580213" y="7.2" width="513.36" height="232.848"/>
  </clipPath>
 </defs>
</svg>
