<?xml version="1.0" encoding="utf-8" standalone="no"?>
<!DOCTYPE svg PUBLIC "-//W3C//DTD SVG 1.1//EN"
  "http://www.w3.org/Graphics/SVG/1.1/DTD/svg11.dtd">
<svg xmlns:xlink="http://www.w3.org/1999/xlink" width="530.780938pt" height="318.916204pt" viewBox="0 0 530.780938 318.916204" xmlns="http://www.w3.org/2000/svg" version="1.1">
 <metadata>
  <rdf:RDF xmlns:dc="http://purl.org/dc/elements/1.1/" xmlns:cc="http://creativecommons.org/ns#" xmlns:rdf="http://www.w3.org/1999/02/22-rdf-syntax-ns#">
   <cc:Work>
    <dc:type rdf:resource="http://purl.org/dc/dcmitype/StillImage"/>
    <dc:date>2026-06-07T15:46:27.392408</dc:date>
    <dc:format>image/svg+xml</dc:format>
    <dc:creator>
     <cc:Agent>
      <dc:title>Matplotlib v3.10.7, https://matplotlib.org/</dc:title>
     </cc:Agent>
    </dc:creator>
   </cc:Work>
  </rdf:RDF>
 </metadata>
 <defs>
  <style type="text/css">*{stroke-linejoin: round; stroke-linecap: butt}</style>
 </defs>
 <g id="figure_1">
  <g id="patch_1">
   <path d="M 0 318.916204 
L 530.780938 318.916204 
L 530.780938 0 
L 0 0 
z
" style="fill: #ffffff"/>
  </g>
  <g id="axes_1">
   <g id="patch_2">
    <path d="M 43.700937 254.089125 
L 523.580938 254.089125 
L 523.580938 25.993125 
L 43.700937 25.993125 
z
" style="fill: #ffffff"/>
   </g>
   <g id="matplotlib.axis_1">
    <g id="xtick_1">
     <g id="line2d_1">
      <defs>
       <path id="m7aebfa7c1a" d="M 0 0 
L 0 3.5 
" style="stroke: #000000; stroke-width: 0.8"/>
      </defs>
      <g>
       <use xlink:href="#m7aebfa7c1a" x="65.513665" y="254.089125" style="stroke: #000000; stroke-width: 0.8"/>
      </g>
     </g>
     <g id="text_1">
      <text style="font-size: 9px; font-family: 'Microsoft YaHei', 'SimHei', 'Arial', 'DejaVu Sans', sans-serif; text-anchor: middle" x="65.513665" y="268.2835" transform="rotate(-0 65.513665 268.2835)">8</text>
     </g>
    </g>
    <g id="xtick_2">
     <g id="line2d_2">
      <g>
       <use xlink:href="#m7aebfa7c1a" x="138.222756" y="254.089125" style="stroke: #000000; stroke-width: 0.8"/>
      </g>
     </g>
     <g id="text_2">
      <text style="font-size: 9px; font-family: 'Microsoft YaHei', 'SimHei', 'Arial', 'DejaVu Sans', sans-serif; text-anchor: middle" x="138.222756" y="268.2835" transform="rotate(-0 138.222756 268.2835)">16</text>
     </g>
    </g>
    <g id="xtick_3">
     <g id="line2d_3">
      <g>
       <use xlink:href="#m7aebfa7c1a" x="210.931847" y="254.089125" style="stroke: #000000; stroke-width: 0.8"/>
      </g>
     </g>
     <g id="text_3">
      <text style="font-size: 9px; font-family: 'Microsoft YaHei', 'SimHei', 'Arial', 'DejaVu Sans', sans-serif; text-anchor: middle" x="210.931847" y="268.2835" transform="rotate(-0 210.931847 268.2835)">32</text>
     </g>
    </g>
    <g id="xtick_4">
     <g id="line2d_4">
      <g>
       <use xlink:href="#m7aebfa7c1a" x="283.640938" y="254.089125" style="stroke: #000000; stroke-width: 0.8"/>
      </g>
     </g>
     <g id="text_4">
      <text style="font-size: 9px; font-family: 'Microsoft YaHei', 'SimHei', 'Arial', 'DejaVu Sans', sans-serif; text-anchor: middle" x="283.640938" y="268.2835" transform="rotate(-0 283.640938 268.2835)">64</text>
     </g>
    </g>
    <g id="xtick_5">
     <g id="line2d_5">
      <g>
       <use xlink:href="#m7aebfa7c1a" x="356.350028" y="254.089125" style="stroke: #000000; stroke-width: 0.8"/>
      </g>
     </g>
     <g id="text_5">
      <text style="font-size: 9px; font-family: 'Microsoft YaHei', 'SimHei', 'Arial', 'DejaVu Sans', sans-serif; text-anchor: middle" x="356.350028" y="268.2835" transform="rotate(-0 356.350028 268.2835)">128</text>
     </g>
    </g>
    <g id="xtick_6">
     <g id="line2d_6">
      <g>
       <use xlink:href="#m7aebfa7c1a" x="429.059119" y="254.089125" style="stroke: #000000; stroke-width: 0.8"/>
      </g>
     </g>
     <g id="text_6">
      <text style="font-size: 9px; font-family: 'Microsoft YaHei', 'SimHei', 'Arial', 'DejaVu Sans', sans-serif; text-anchor: middle" x="429.059119" y="268.2835" transform="rotate(-0 429.059119 268.2835)">256</text>
     </g>
    </g>
    <g id="xtick_7">
     <g id="line2d_7">
      <g>
       <use xlink:href="#m7aebfa7c1a" x="501.76821" y="254.089125" style="stroke: #000000; stroke-width: 0.8"/>
      </g>
     </g>
     <g id="text_7">
      <text style="font-size: 9px; font-family: 'Microsoft YaHei', 'SimHei', 'Arial', 'DejaVu Sans', sans-serif; text-anchor: middle" x="501.76821" y="268.2835" transform="rotate(-0 501.76821 268.2835)">512</text>
     </g>
    </g>
    <g id="text_8">
     <text style="font-size: 9px; font-family: 'Microsoft YaHei', 'SimHei', 'Arial', 'DejaVu Sans', sans-serif; text-anchor: middle" x="283.640938" y="281.715219" transform="rotate(-0 283.640938 281.715219)">Batch size</text>
    </g>
   </g>
   <g id="matplotlib.axis_2">
    <g id="ytick_1">
     <g id="line2d_8">
      <path d="M 43.700937 249.471797 
L 523.580938 249.471797 
" clip-path="url(#p5ca89609be)" style="fill: none; stroke: #b0b0b0; stroke-opacity: 0.22; stroke-width: 0.8; stroke-linecap: square"/>
     </g>
     <g id="line2d_9">
      <defs>
       <path id="m34792bed53" d="M 0 0 
L -3.5 0 
" style="stroke: #000000; stroke-width: 0.8"/>
      </defs>
      <g>
       <use xlink:href="#m34792bed53" x="43.700937" y="249.471797" style="stroke: #000000; stroke-width: 0.8"/>
      </g>
     </g>
     <g id="text_9">
      <text style="font-size: 9px; font-family: 'Microsoft YaHei', 'SimHei', 'Arial', 'DejaVu Sans', sans-serif; text-anchor: end" x="36.700937" y="253.068985" transform="rotate(-0 36.700937 253.068985)">250</text>
     </g>
    </g>
    <g id="ytick_2">
     <g id="line2d_10">
      <path d="M 43.700937 203.298518 
L 523.580938 203.298518 
" clip-path="url(#p5ca89609be)" style="fill: none; stroke: #b0b0b0; stroke-opacity: 0.22; stroke-width: 0.8; stroke-linecap: square"/>
     </g>
     <g id="line2d_11">
      <g>
       <use xlink:href="#m34792bed53" x="43.700937" y="203.298518" style="stroke: #000000; stroke-width: 0.8"/>
      </g>
     </g>
     <g id="text_10">
      <text style="font-size: 9px; font-family: 'Microsoft YaHei', 'SimHei', 'Arial', 'DejaVu Sans', sans-serif; text-anchor: end" x="36.700937" y="206.895705" transform="rotate(-0 36.700937 206.895705)">300</text>
     </g>
    </g>
    <g id="ytick_3">
     <g id="line2d_12">
      <path d="M 43.700937 157.125238 
L 523.580938 157.125238 
" clip-path="url(#p5ca89609be)" style="fill: none; stroke: #b0b0b0; stroke-opacity: 0.22; stroke-width: 0.8; stroke-linecap: square"/>
     </g>
     <g id="line2d_13">
      <g>
       <use xlink:href="#m34792bed53" x="43.700937" y="157.125238" style="stroke: #000000; stroke-width: 0.8"/>
      </g>
     </g>
     <g id="text_11">
      <text style="font-size: 9px; font-family: 'Microsoft YaHei', 'SimHei', 'Arial', 'DejaVu Sans', sans-serif; text-anchor: end" x="36.700937" y="160.722426" transform="rotate(-0 36.700937 160.722426)">350</text>
     </g>
    </g>
    <g id="ytick_4">
     <g id="line2d_14">
      <path d="M 43.700937 110.951959 
L 523.580938 110.951959 
" clip-path="url(#p5ca89609be)" style="fill: none; stroke: #b0b0b0; stroke-opacity: 0.22; stroke-width: 0.8; stroke-linecap: square"/>
     </g>
     <g id="line2d_15">
      <g>
       <use xlink:href="#m34792bed53" x="43.700937" y="110.951959" style="stroke: #000000; stroke-width: 0.8"/>
      </g>
     </g>
     <g id="text_12">
      <text style="font-size: 9px; font-family: 'Microsoft YaHei', 'SimHei', 'Arial', 'DejaVu Sans', sans-serif; text-anchor: end" x="36.700937" y="114.549147" transform="rotate(-0 36.700937 114.549147)">400</text>
     </g>
    </g>
    <g id="ytick_5">
     <g id="line2d_16">
      <path d="M 43.700937 64.77868 
L 523.580938 64.77868 
" clip-path="url(#p5ca89609be)" style="fill: none; stroke: #b0b0b0; stroke-opacity: 0.22; stroke-width: 0.8; stroke-linecap: square"/>
     </g>
     <g id="line2d_17">
      <g>
       <use xlink:href="#m34792bed53" x="43.700937" y="64.77868" style="stroke: #000000; stroke-width: 0.8"/>
      </g>
     </g>
     <g id="text_13">
      <text style="font-size: 9px; font-family: 'Microsoft YaHei', 'SimHei', 'Arial', 'DejaVu Sans', sans-serif; text-anchor: end" x="36.700937" y="68.375867" transform="rotate(-0 36.700937 68.375867)">450</text>
     </g>
    </g>
    <g id="text_14">
     <text style="font-size: 9px; font-family: 'Microsoft YaHei', 'SimHei', 'Arial', 'DejaVu Sans', sans-serif; text-anchor: middle" x="14.578594" y="140.041125" transform="rotate(-90 14.578594 140.041125)">吞吐量 (images/s)</text>
    </g>
   </g>
   <g id="line2d_18">
    <path d="M 65.513665 244.512787 
L 138.222756 214.444747 
L 210.931847 203.529384 
L 283.640938 209.476502 
L 356.350028 242.878253 
L 429.059119 222.405021 
L 501.76821 205.496366 
" clip-path="url(#p5ca89609be)" style="fill: none; stroke: #5b6670; stroke-width: 2.2; stroke-linecap: square"/>
    <defs>
     <path id="m94e8158ada" d="M 0 2.75 
C 0.729309 2.75 1.428845 2.460243 1.944544 1.944544 
C 2.460243 1.428845 2.75 0.729309 2.75 0 
C 2.75 -0.729309 2.460243 -1.428845 1.944544 -1.944544 
C 1.428845 -2.460243 0.729309 -2.75 0 -2.75 
C -0.729309 -2.75 -1.428845 -2.460243 -1.944544 -1.944544 
C -2.460243 -1.428845 -2.75 -0.729309 -2.75 0 
C -2.75 0.729309 -2.460243 1.428845 -1.944544 1.944544 
C -1.428845 2.460243 -0.729309 2.75 0 2.75 
z
" style="stroke: #5b6670"/>
    </defs>
    <g clip-path="url(#p5ca89609be)">
     <use xlink:href="#m94e8158ada" x="65.513665" y="244.512787" style="fill: #5b6670; stroke: #5b6670"/>
     <use xlink:href="#m94e8158ada" x="138.222756" y="214.444747" style="fill: #5b6670; stroke: #5b6670"/>
     <use xlink:href="#m94e8158ada" x="210.931847" y="203.529384" style="fill: #5b6670; stroke: #5b6670"/>
     <use xlink:href="#m94e8158ada" x="283.640938" y="209.476502" style="fill: #5b6670; stroke: #5b6670"/>
     <use xlink:href="#m94e8158ada" x="356.350028" y="242.878253" style="fill: #5b6670; stroke: #5b6670"/>
     <use xlink:href="#m94e8158ada" x="429.059119" y="222.405021" style="fill: #5b6670; stroke: #5b6670"/>
     <use xlink:href="#m94e8158ada" x="501.76821" y="205.496366" style="fill: #5b6670; stroke: #5b6670"/>
    </g>
   </g>
   <g id="line2d_19">
    <path d="M 65.513665 208.220589 
L 138.222756 114.396486 
L 210.931847 69.128203 
L 283.640938 69.377538 
L 356.350028 84.790179 
L 429.059119 77.854952 
L 501.76821 70.485697 
" clip-path="url(#p5ca89609be)" style="fill: none; stroke: #2a6fbb; stroke-width: 2.2; stroke-linecap: square"/>
    <defs>
     <path id="m76c63b4117" d="M 0 2.75 
C 0.729309 2.75 1.428845 2.460243 1.944544 1.944544 
C 2.460243 1.428845 2.75 0.729309 2.75 0 
C 2.75 -0.729309 2.460243 -1.428845 1.944544 -1.944544 
C 1.428845 -2.460243 0.729309 -2.75 0 -2.75 
C -0.729309 -2.75 -1.428845 -2.460243 -1.944544 -1.944544 
C -2.460243 -1.428845 -2.75 -0.729309 -2.75 0 
C -2.75 0.729309 -2.460243 1.428845 -1.944544 1.944544 
C -1.428845 2.460243 -0.729309 2.75 0 2.75 
z
" style="stroke: #2a6fbb"/>
    </defs>
    <g clip-path="url(#p5ca89609be)">
     <use xlink:href="#m76c63b4117" x="65.513665" y="208.220589" style="fill: #2a6fbb; stroke: #2a6fbb"/>
     <use xlink:href="#m76c63b4117" x="138.222756" y="114.396486" style="fill: #2a6fbb; stroke: #2a6fbb"/>
     <use xlink:href="#m76c63b4117" x="210.931847" y="69.128203" style="fill: #2a6fbb; stroke: #2a6fbb"/>
     <use xlink:href="#m76c63b4117" x="283.640938" y="69.377538" style="fill: #2a6fbb; stroke: #2a6fbb"/>
     <use xlink:href="#m76c63b4117" x="356.350028" y="84.790179" style="fill: #2a6fbb; stroke: #2a6fbb"/>
     <use xlink:href="#m76c63b4117" x="429.059119" y="77.854952" style="fill: #2a6fbb; stroke: #2a6fbb"/>
     <use xlink:href="#m76c63b4117" x="501.76821" y="70.485697" style="fill: #2a6fbb; stroke: #2a6fbb"/>
    </g>
   </g>
   <g id="line2d_20">
    <path d="M 65.513665 147.890582 
L 138.222756 99.944249 
L 210.931847 55.553258 
L 283.640938 101.347917 
L 356.350028 67.161221 
L 429.059119 82.915544 
L 501.76821 60.207525 
" clip-path="url(#p5ca89609be)" style="fill: none; stroke: #d9822b; stroke-width: 2.2; stroke-linecap: square"/>
    <defs>
     <path id="m670724e60c" d="M 0 2.75 
C 0.729309 2.75 1.428845 2.460243 1.944544 1.944544 
C 2.460243 1.428845 2.75 0.729309 2.75 0 
C 2.75 -0.729309 2.460243 -1.428845 1.944544 -1.944544 
C 1.428845 -2.460243 0.729309 -2.75 0 -2.75 
C -0.729309 -2.75 -1.428845 -2.460243 -1.944544 -1.944544 
C -2.460243 -1.428845 -2.75 -0.729309 -2.75 0 
C -2.75 0.729309 -2.460243 1.428845 -1.944544 1.944544 
C -1.428845 2.460243 -0.729309 2.75 0 2.75 
z
" style="stroke: #d9822b"/>
    </defs>
    <g clip-path="url(#p5ca89609be)">
     <use xlink:href="#m670724e60c" x="65.513665" y="147.890582" style="fill: #d9822b; stroke: #d9822b"/>
     <use xlink:href="#m670724e60c" x="138.222756" y="99.944249" style="fill: #d9822b; stroke: #d9822b"/>
     <use xlink:href="#m670724e60c" x="210.931847" y="55.553258" style="fill: #d9822b; stroke: #d9822b"/>
     <use xlink:href="#m670724e60c" x="283.640938" y="101.347917" style="fill: #d9822b; stroke: #d9822b"/>
     <use xlink:href="#m670724e60c" x="356.350028" y="67.161221" style="fill: #d9822b; stroke: #d9822b"/>
     <use xlink:href="#m670724e60c" x="429.059119" y="82.915544" style="fill: #d9822b; stroke: #d9822b"/>
     <use xlink:href="#m670724e60c" x="501.76821" y="60.207525" style="fill: #d9822b; stroke: #d9822b"/>
    </g>
   </g>
   <g id="line2d_21">
    <path d="M 65.513665 182.871459 
L 138.222756 129.476679 
L 210.931847 121.765741 
L 283.640938 150.956488 
L 356.350028 116.585099 
L 429.059119 120.703756 
L 501.76821 140.798367 
" clip-path="url(#p5ca89609be)" style="fill: none; stroke: #2f9e7e; stroke-width: 2.2; stroke-linecap: square"/>
    <defs>
     <path id="m98751e4ac0" d="M 0 2.75 
C 0.729309 2.75 1.428845 2.460243 1.944544 1.944544 
C 2.460243 1.428845 2.75 0.729309 2.75 0 
C 2.75 -0.729309 2.460243 -1.428845 1.944544 -1.944544 
C 1.428845 -2.460243 0.729309 -2.75 0 -2.75 
C -0.729309 -2.75 -1.428845 -2.460243 -1.944544 -1.944544 
C -2.460243 -1.428845 -2.75 -0.729309 -2.75 0 
C -2.75 0.729309 -2.460243 1.428845 -1.944544 1.944544 
C -1.428845 2.460243 -0.729309 2.75 0 2.75 
z
" style="stroke: #2f9e7e"/>
    </defs>
    <g clip-path="url(#p5ca89609be)">
     <use xlink:href="#m98751e4ac0" x="65.513665" y="182.871459" style="fill: #2f9e7e; stroke: #2f9e7e"/>
     <use xlink:href="#m98751e4ac0" x="138.222756" y="129.476679" style="fill: #2f9e7e; stroke: #2f9e7e"/>
     <use xlink:href="#m98751e4ac0" x="210.931847" y="121.765741" style="fill: #2f9e7e; stroke: #2f9e7e"/>
     <use xlink:href="#m98751e4ac0" x="283.640938" y="150.956488" style="fill: #2f9e7e; stroke: #2f9e7e"/>
     <use xlink:href="#m98751e4ac0" x="356.350028" y="116.585099" style="fill: #2f9e7e; stroke: #2f9e7e"/>
     <use xlink:href="#m98751e4ac0" x="429.059119" y="120.703756" style="fill: #2f9e7e; stroke: #2f9e7e"/>
     <use xlink:href="#m98751e4ac0" x="501.76821" y="140.798367" style="fill: #2f9e7e; stroke: #2f9e7e"/>
    </g>
   </g>
   <g id="patch_3">
    <path d="M 43.700937 254.089125 
L 43.700937 25.993125 
" style="fill: none; stroke: #000000; stroke-width: 0.9; stroke-linejoin: miter; stroke-linecap: square"/>
   </g>
   <g id="patch_4">
    <path d="M 43.700938 254.089125 
L 523.580938 254.089125 
" style="fill: none; stroke: #000000; stroke-width: 0.9; stroke-linejoin: miter; stroke-linecap: square"/>
   </g>
   <g id="patch_5">
    <path d="M 289.049643 46.482948 
Q 250.984859 50.902676 214.252762 55.167665 
" style="fill: none; stroke: #b23a48; stroke-width: 1.2; stroke-linecap: round"/>
    <path d="M 217.826143 56.464178 
L 214.252762 55.167665 
L 217.434001 53.086868 
z
" style="fill: #b23a48; stroke: #b23a48; stroke-width: 1.2; stroke-linecap: round"/>
   </g>
   <g id="text_15">
    <text style="font-size: 8.5px; font-family: 'Microsoft YaHei', 'SimHei', 'Arial', 'DejaVu Sans', sans-serif; fill: #1f2933" transform="translate(293.040988 38.763952)">峰值 459.99 img/s</text>
    <text style="font-size: 8.5px; font-family: 'Microsoft YaHei', 'SimHei', 'Arial', 'DejaVu Sans', sans-serif; fill: #1f2933" transform="translate(293.040988 49.079765)">Optim FP16, BS=32</text>
   </g>
   <g id="text_16">
    <text style="font-weight: 700; font-size: 11px; font-family: 'Microsoft YaHei', 'SimHei', 'Arial', 'DejaVu Sans', sans-serif; text-anchor: start" x="43.700937" y="15.993125" transform="rotate(-0 43.700937 15.993125)">ResNet-18 / CIFAR-10 推理吞吐量对比</text>
   </g>
   <g id="PathCollection_1">
    <defs>
     <path id="m34b61faec7" d="M 0 4.873397 
C 1.29244 4.873397 2.532119 4.359905 3.446012 3.446012 
C 4.359905 2.532119 4.873397 1.29244 4.873397 0 
C 4.873397 -1.29244 4.359905 -2.532119 3.446012 -3.446012 
C 2.532119 -4.359905 1.29244 -4.873397 0 -4.873397 
C -1.29244 -4.873397 -2.532119 -4.359905 -3.446012 -3.446012 
C -4.359905 -2.532119 -4.873397 -1.29244 -4.873397 0 
C -4.873397 1.29244 -4.359905 2.532119 -3.446012 3.446012 
C -2.532119 4.359905 -1.29244 4.873397 0 4.873397 
z
" style="stroke: #b23a48"/>
    </defs>
    <g clip-path="url(#p5ca89609be)">
     <use xlink:href="#m34b61faec7" x="210.931847" y="55.553258" style="fill: #b23a48; stroke: #b23a48"/>
    </g>
   </g>
   <g id="legend_1">
    <g id="line2d_22">
     <path d="M 96.344609 302.72886 
L 106.244609 302.72886 
L 116.144609 302.72886 
" style="fill: none; stroke: #5b6670; stroke-width: 2.2; stroke-linecap: square"/>
     <g>
      <use xlink:href="#m94e8158ada" x="106.244609" y="302.72886" style="fill: #5b6670; stroke: #5b6670"/>
     </g>
    </g>
    <g id="text_17">
     <text style="font-size: 9px; font-family: 'Microsoft YaHei', 'SimHei', 'Arial', 'DejaVu Sans', sans-serif; text-anchor: start" x="123.344609" y="305.87886" transform="rotate(-0 123.344609 305.87886)">Baseline FP32</text>
    </g>
    <g id="line2d_23">
     <path d="M 196.589141 302.72886 
L 206.489141 302.72886 
L 216.389141 302.72886 
" style="fill: none; stroke: #2a6fbb; stroke-width: 2.2; stroke-linecap: square"/>
     <g>
      <use xlink:href="#m76c63b4117" x="206.489141" y="302.72886" style="fill: #2a6fbb; stroke: #2a6fbb"/>
     </g>
    </g>
    <g id="text_18">
     <text style="font-size: 9px; font-family: 'Microsoft YaHei', 'SimHei', 'Arial', 'DejaVu Sans', sans-serif; text-anchor: start" x="223.589141" y="305.87886" transform="rotate(-0 223.589141 305.87886)">Optim FP32</text>
    </g>
    <g id="line2d_24">
     <path d="M 288.760391 302.72886 
L 298.660391 302.72886 
L 308.560391 302.72886 
" style="fill: none; stroke: #d9822b; stroke-width: 2.2; stroke-linecap: square"/>
     <g>
      <use xlink:href="#m670724e60c" x="298.660391" y="302.72886" style="fill: #d9822b; stroke: #d9822b"/>
     </g>
    </g>
    <g id="text_19">
     <text style="font-size: 9px; font-family: 'Microsoft YaHei', 'SimHei', 'Arial', 'DejaVu Sans', sans-serif; text-anchor: start" x="315.760391" y="305.87886" transform="rotate(-0 315.760391 305.87886)">Optim FP16</text>
    </g>
    <g id="line2d_25">
     <path d="M 380.931641 302.72886 
L 390.831641 302.72886 
L 400.731641 302.72886 
" style="fill: none; stroke: #2f9e7e; stroke-width: 2.2; stroke-linecap: square"/>
     <g>
      <use xlink:href="#m98751e4ac0" x="390.831641" y="302.72886" style="fill: #2f9e7e; stroke: #2f9e7e"/>
     </g>
    </g>
    <g id="text_20">
     <text style="font-size: 9px; font-family: 'Microsoft YaHei', 'SimHei', 'Arial', 'DejaVu Sans', sans-serif; text-anchor: start" x="407.931641" y="305.87886" transform="rotate(-0 407.931641 305.87886)">Optim WMMA</text>
    </g>
   </g>
  </g>
 </g>
 <defs>
  <clipPath id="p5ca89609be">
   <rect x="43.700937" y="25.993125" width="479.88" height="228.096"/>
  </clipPath>
 </defs>
</svg>
